<mxfile host="app.diagrams.net" modified="2022-03-19T05:40:48.469Z" agent="5.0 (Windows NT 10.0; Win64; x64) AppleWebKit/537.36 (KHTML, like Gecko) Chrome/99.0.4844.51 Safari/537.36 Edg/99.0.1150.39" etag="WjP5jM-vPSTFxy7zmpDi" version="17.1.3" type="github">
  <diagram id="C5RBs43oDa-KdzZeNtuy" name="Page-1">
    <mxGraphModel dx="744" dy="474" grid="1" gridSize="10" guides="1" tooltips="1" connect="1" arrows="1" fold="1" page="1" pageScale="1" pageWidth="827" pageHeight="1169" math="0" shadow="0">
      <root>
        <mxCell id="WIyWlLk6GJQsqaUBKTNV-0" />
        <mxCell id="WIyWlLk6GJQsqaUBKTNV-1" parent="WIyWlLk6GJQsqaUBKTNV-0" />
        <mxCell id="xvinwkqfICjsCzALPFnv-6" value="" style="edgeStyle=orthogonalEdgeStyle;rounded=0;orthogonalLoop=1;jettySize=auto;html=1;entryX=0.5;entryY=0;entryDx=0;entryDy=0;" edge="1" parent="WIyWlLk6GJQsqaUBKTNV-1" source="xvinwkqfICjsCzALPFnv-0" target="xvinwkqfICjsCzALPFnv-3">
          <mxGeometry relative="1" as="geometry">
            <mxPoint x="498" y="210" as="targetPoint" />
          </mxGeometry>
        </mxCell>
        <mxCell id="xvinwkqfICjsCzALPFnv-0" value="开始" style="ellipse;whiteSpace=wrap;html=1;" vertex="1" parent="WIyWlLk6GJQsqaUBKTNV-1">
          <mxGeometry x="459" y="150" width="78" height="43" as="geometry" />
        </mxCell>
        <mxCell id="xvinwkqfICjsCzALPFnv-14" value="" style="edgeStyle=orthogonalEdgeStyle;rounded=0;orthogonalLoop=1;jettySize=auto;html=1;" edge="1" parent="WIyWlLk6GJQsqaUBKTNV-1" source="xvinwkqfICjsCzALPFnv-1" target="xvinwkqfICjsCzALPFnv-2">
          <mxGeometry relative="1" as="geometry" />
        </mxCell>
        <mxCell id="xvinwkqfICjsCzALPFnv-1" value="创建分析规则" style="rounded=1;whiteSpace=wrap;html=1;fontSize=12;glass=0;strokeWidth=1;shadow=0;" vertex="1" parent="WIyWlLk6GJQsqaUBKTNV-1">
          <mxGeometry x="341" y="370" width="104" height="40" as="geometry" />
        </mxCell>
        <mxCell id="xvinwkqfICjsCzALPFnv-16" value="" style="edgeStyle=orthogonalEdgeStyle;rounded=0;orthogonalLoop=1;jettySize=auto;html=1;entryX=0.5;entryY=0;entryDx=0;entryDy=0;exitX=0.5;exitY=1;exitDx=0;exitDy=0;" edge="1" parent="WIyWlLk6GJQsqaUBKTNV-1" source="xvinwkqfICjsCzALPFnv-2" target="xvinwkqfICjsCzALPFnv-17">
          <mxGeometry relative="1" as="geometry">
            <mxPoint x="395" y="545" as="targetPoint" />
            <Array as="points">
              <mxPoint x="393" y="540" />
              <mxPoint x="498" y="540" />
            </Array>
          </mxGeometry>
        </mxCell>
        <mxCell id="xvinwkqfICjsCzALPFnv-2" value="规则配置" style="rounded=1;whiteSpace=wrap;html=1;fontSize=12;glass=0;strokeWidth=1;shadow=0;" vertex="1" parent="WIyWlLk6GJQsqaUBKTNV-1">
          <mxGeometry x="341" y="450" width="104" height="40" as="geometry" />
        </mxCell>
        <mxCell id="xvinwkqfICjsCzALPFnv-8" value="" style="edgeStyle=orthogonalEdgeStyle;rounded=0;orthogonalLoop=1;jettySize=auto;html=1;" edge="1" parent="WIyWlLk6GJQsqaUBKTNV-1" source="xvinwkqfICjsCzALPFnv-3" target="xvinwkqfICjsCzALPFnv-5">
          <mxGeometry relative="1" as="geometry" />
        </mxCell>
        <mxCell id="xvinwkqfICjsCzALPFnv-3" value="业务需求输入" style="rounded=1;whiteSpace=wrap;html=1;fontSize=12;glass=0;strokeWidth=1;shadow=0;" vertex="1" parent="WIyWlLk6GJQsqaUBKTNV-1">
          <mxGeometry x="447" y="220" width="104" height="40" as="geometry" />
        </mxCell>
        <mxCell id="xvinwkqfICjsCzALPFnv-10" style="edgeStyle=orthogonalEdgeStyle;rounded=0;orthogonalLoop=1;jettySize=auto;html=1;" edge="1" parent="WIyWlLk6GJQsqaUBKTNV-1" source="xvinwkqfICjsCzALPFnv-5" target="xvinwkqfICjsCzALPFnv-1">
          <mxGeometry relative="1" as="geometry" />
        </mxCell>
        <mxCell id="xvinwkqfICjsCzALPFnv-12" style="edgeStyle=orthogonalEdgeStyle;rounded=0;orthogonalLoop=1;jettySize=auto;html=1;exitX=1;exitY=0.5;exitDx=0;exitDy=0;" edge="1" parent="WIyWlLk6GJQsqaUBKTNV-1" source="xvinwkqfICjsCzALPFnv-5" target="xvinwkqfICjsCzALPFnv-9">
          <mxGeometry relative="1" as="geometry" />
        </mxCell>
        <mxCell id="xvinwkqfICjsCzALPFnv-5" value="是否已有预置规则" style="rhombus;whiteSpace=wrap;html=1;" vertex="1" parent="WIyWlLk6GJQsqaUBKTNV-1">
          <mxGeometry x="459" y="280" width="80" height="80" as="geometry" />
        </mxCell>
        <mxCell id="xvinwkqfICjsCzALPFnv-18" style="edgeStyle=orthogonalEdgeStyle;rounded=0;orthogonalLoop=1;jettySize=auto;html=1;entryX=0.5;entryY=0;entryDx=0;entryDy=0;" edge="1" parent="WIyWlLk6GJQsqaUBKTNV-1" source="xvinwkqfICjsCzALPFnv-9" target="xvinwkqfICjsCzALPFnv-17">
          <mxGeometry relative="1" as="geometry">
            <mxPoint x="499" y="630" as="targetPoint" />
            <Array as="points">
              <mxPoint x="607" y="540" />
              <mxPoint x="499" y="540" />
              <mxPoint x="499" y="570" />
            </Array>
          </mxGeometry>
        </mxCell>
        <mxCell id="xvinwkqfICjsCzALPFnv-9" value="调整预置规则" style="rounded=1;whiteSpace=wrap;html=1;fontSize=12;glass=0;strokeWidth=1;shadow=0;" vertex="1" parent="WIyWlLk6GJQsqaUBKTNV-1">
          <mxGeometry x="555" y="390" width="104" height="40" as="geometry" />
        </mxCell>
        <mxCell id="xvinwkqfICjsCzALPFnv-11" value="No" style="text;html=1;align=center;verticalAlign=middle;resizable=0;points=[];autosize=1;strokeColor=none;fillColor=none;" vertex="1" parent="WIyWlLk6GJQsqaUBKTNV-1">
          <mxGeometry x="417" y="300" width="30" height="20" as="geometry" />
        </mxCell>
        <mxCell id="xvinwkqfICjsCzALPFnv-13" value="Yes" style="text;html=1;align=center;verticalAlign=middle;resizable=0;points=[];autosize=1;strokeColor=none;fillColor=none;" vertex="1" parent="WIyWlLk6GJQsqaUBKTNV-1">
          <mxGeometry x="555" y="300" width="30" height="20" as="geometry" />
        </mxCell>
        <mxCell id="xvinwkqfICjsCzALPFnv-23" value="" style="edgeStyle=orthogonalEdgeStyle;rounded=0;orthogonalLoop=1;jettySize=auto;html=1;" edge="1" parent="WIyWlLk6GJQsqaUBKTNV-1" source="xvinwkqfICjsCzALPFnv-17" target="xvinwkqfICjsCzALPFnv-22">
          <mxGeometry relative="1" as="geometry" />
        </mxCell>
        <mxCell id="xvinwkqfICjsCzALPFnv-17" value="创建关联分析任务" style="rounded=1;whiteSpace=wrap;html=1;fontSize=12;glass=0;strokeWidth=1;shadow=0;" vertex="1" parent="WIyWlLk6GJQsqaUBKTNV-1">
          <mxGeometry x="446" y="570" width="104" height="40" as="geometry" />
        </mxCell>
        <mxCell id="xvinwkqfICjsCzALPFnv-19" value="结束" style="ellipse;whiteSpace=wrap;html=1;" vertex="1" parent="WIyWlLk6GJQsqaUBKTNV-1">
          <mxGeometry x="459" y="870" width="78" height="43" as="geometry" />
        </mxCell>
        <mxCell id="xvinwkqfICjsCzALPFnv-26" value="" style="edgeStyle=orthogonalEdgeStyle;rounded=0;orthogonalLoop=1;jettySize=auto;html=1;" edge="1" parent="WIyWlLk6GJQsqaUBKTNV-1" source="xvinwkqfICjsCzALPFnv-22" target="xvinwkqfICjsCzALPFnv-25">
          <mxGeometry relative="1" as="geometry" />
        </mxCell>
        <mxCell id="xvinwkqfICjsCzALPFnv-22" value="执行关联分析任务" style="rounded=1;whiteSpace=wrap;html=1;fontSize=12;glass=0;strokeWidth=1;shadow=0;" vertex="1" parent="WIyWlLk6GJQsqaUBKTNV-1">
          <mxGeometry x="447" y="630" width="104" height="40" as="geometry" />
        </mxCell>
        <mxCell id="xvinwkqfICjsCzALPFnv-28" value="" style="edgeStyle=orthogonalEdgeStyle;rounded=0;orthogonalLoop=1;jettySize=auto;html=1;" edge="1" parent="WIyWlLk6GJQsqaUBKTNV-1" source="xvinwkqfICjsCzALPFnv-25" target="xvinwkqfICjsCzALPFnv-27">
          <mxGeometry relative="1" as="geometry" />
        </mxCell>
        <mxCell id="xvinwkqfICjsCzALPFnv-31" style="edgeStyle=orthogonalEdgeStyle;rounded=0;orthogonalLoop=1;jettySize=auto;html=1;exitX=1;exitY=0.5;exitDx=0;exitDy=0;entryX=1;entryY=0.5;entryDx=0;entryDy=0;" edge="1" parent="WIyWlLk6GJQsqaUBKTNV-1" source="xvinwkqfICjsCzALPFnv-25" target="xvinwkqfICjsCzALPFnv-3">
          <mxGeometry relative="1" as="geometry">
            <mxPoint x="710" y="242.5764797044837" as="targetPoint" />
            <Array as="points">
              <mxPoint x="700" y="740" />
              <mxPoint x="700" y="240" />
            </Array>
          </mxGeometry>
        </mxCell>
        <mxCell id="xvinwkqfICjsCzALPFnv-25" value="规则运行结果符合预期？" style="rhombus;whiteSpace=wrap;html=1;" vertex="1" parent="WIyWlLk6GJQsqaUBKTNV-1">
          <mxGeometry x="459" y="700" width="80" height="80" as="geometry" />
        </mxCell>
        <mxCell id="xvinwkqfICjsCzALPFnv-29" value="" style="edgeStyle=orthogonalEdgeStyle;rounded=0;orthogonalLoop=1;jettySize=auto;html=1;" edge="1" parent="WIyWlLk6GJQsqaUBKTNV-1" source="xvinwkqfICjsCzALPFnv-27" target="xvinwkqfICjsCzALPFnv-19">
          <mxGeometry relative="1" as="geometry" />
        </mxCell>
        <mxCell id="xvinwkqfICjsCzALPFnv-27" value="启用规则" style="rounded=1;whiteSpace=wrap;html=1;fontSize=12;glass=0;strokeWidth=1;shadow=0;" vertex="1" parent="WIyWlLk6GJQsqaUBKTNV-1">
          <mxGeometry x="447" y="810" width="104" height="40" as="geometry" />
        </mxCell>
        <mxCell id="xvinwkqfICjsCzALPFnv-30" value="Yes" style="text;html=1;align=center;verticalAlign=middle;resizable=0;points=[];autosize=1;strokeColor=none;fillColor=none;" vertex="1" parent="WIyWlLk6GJQsqaUBKTNV-1">
          <mxGeometry x="500" y="780" width="30" height="20" as="geometry" />
        </mxCell>
        <mxCell id="xvinwkqfICjsCzALPFnv-32" value="No" style="text;html=1;align=center;verticalAlign=middle;resizable=0;points=[];autosize=1;strokeColor=none;fillColor=none;" vertex="1" parent="WIyWlLk6GJQsqaUBKTNV-1">
          <mxGeometry x="545" y="720" width="30" height="20" as="geometry" />
        </mxCell>
      </root>
    </mxGraphModel>
  </diagram>
</mxfile>
